<?xml version="1.0" standalone="no"?>
<!DOCTYPE svg PUBLIC "-//W3C//DTD SVG 20010904//EN"
 "http://www.w3.org/TR/2001/REC-SVG-20010904/DTD/svg10.dtd">
<svg version="1.0" xmlns="http://www.w3.org/2000/svg"
 width="301.000000pt" height="168.000000pt" viewBox="0 0 301.000000 168.000000"
 preserveAspectRatio="xMidYMid meet">

<g transform="translate(0.000000,168.000000) scale(0.100000,-0.100000)"
fill="#000000" stroke="none">
<path d="M730 1670 c-20 -6 -21 -8 -5 -8 11 0 34 4 50 8 27 7 27 8 5 8 -14 0
-36 -4 -50 -8z"/>
<path d="M830 1661 c5 -11 10 -35 10 -53 0 -37 -18 -71 -27 -50 -2 6 -9 12
-14 12 -6 0 -6 -7 0 -19 8 -14 6 -23 -9 -36 -11 -10 -16 -23 -13 -29 10 -15
-85 65 -121 102 -15 17 -25 35 -22 41 4 6 2 11 -3 11 -27 0 -5 -36 65 -107
l77 -77 -24 -19 c-29 -23 -72 -18 -150 17 -34 16 -83 28 -131 32 -65 6 -87 3
-145 -16 -37 -12 -78 -27 -91 -33 -22 -11 -30 -27 -12 -27 6 0 10 4 10 9 0 6
13 5 32 -1 32 -11 32 -11 7 -20 -15 -6 -32 -5 -47 1 -32 15 -53 14 -74 -6 -18
-16 -48 -14 -133 12 -11 3 -1 -3 21 -14 23 -10 45 -24 48 -30 4 -6 18 -11 32
-11 26 0 27 -4 15 -35 -6 -16 1 -29 33 -61 66 -65 114 -124 100 -124 -7 0 -16
5 -19 10 -3 6 -14 10 -23 10 -35 0 7 -22 70 -37 155 -36 171 -37 254 -19 43
10 90 18 104 19 14 1 31 7 38 14 7 7 21 13 31 13 9 0 22 5 29 12 16 16 36 -2
62 -56 22 -46 37 -147 41 -270 2 -86 13 -138 54 -270 27 -86 27 -92 16 -182
-10 -87 -14 -172 -6 -149 2 6 6 45 10 87 l7 77 48 31 c55 35 57 38 69 139 10
75 1 175 -20 227 -6 16 -15 67 -19 114 -8 82 -7 86 18 112 14 15 23 31 19 34
-4 4 -9 -1 -13 -10 -3 -9 -17 -16 -31 -16 -23 0 -24 3 -22 53 2 57 -18 109
-51 130 -12 7 -20 23 -20 38 0 21 7 29 29 37 16 6 32 8 35 5 3 -4 6 -4 6 -1 0
12 -49 56 -56 50 -4 -4 -4 -1 0 5 4 8 -6 29 -23 51 -41 51 -50 96 -24 125 23
25 28 64 6 46 -15 -13 -18 -23 -3 -14 14 8 13 -8 -1 -22 -13 -13 -39 6 -39 27
0 16 51 114 64 122 8 6 7 8 -1 8 -7 0 -21 -17 -31 -37 l-19 -36 -7 36 c-4 20
-11 37 -17 37 -6 0 -6 -7 1 -19z m-407 -208 c47 -24 18 -27 -34 -3 -33 14 -38
20 -21 20 13 0 37 -7 55 -17z m107 7 c0 -5 -4 -10 -9 -10 -6 0 -13 5 -16 10
-3 6 1 10 9 10 9 0 16 -4 16 -10z m-175 -12 c14 -6 25 -15 25 -19 0 -15 -26
-15 -58 0 -33 15 -32 17 5 30 1 1 14 -4 28 -11z m458 -62 c6 -69 -3 -107 -35
-150 -13 -16 -19 -17 -50 -7 -45 15 -54 54 -26 109 18 37 95 128 102 121 2 -2
6 -35 9 -73z m-588 -27 c15 -15 -20 -10 -51 7 l-29 15 35 -6 c19 -4 39 -11 45
-16z m-55 -40 c0 -6 7 -9 15 -5 8 3 21 -1 29 -9 8 -8 24 -15 35 -15 12 0 21
-4 21 -10 0 -13 -4 -13 -67 7 -29 9 -53 23 -53 30 0 7 5 13 10 13 6 0 10 -5
10 -11z m170 -4 c31 -18 16 -18 -30 0 -23 9 -28 14 -15 14 11 0 31 -6 45 -14z
m-30 -45 c-8 -5 -19 -10 -25 -10 -5 0 -3 5 5 10 8 5 20 10 25 10 6 0 3 -5 -5
-10z m600 -230 c0 -5 -4 -10 -10 -10 -5 0 -10 5 -10 10 0 6 5 10 10 10 6 0 10
-4 10 -10z m0 -65 c7 -9 8 -15 2 -15 -5 0 -12 7 -16 15 -3 8 -4 15 -2 15 2 0
9 -7 16 -15z"/>
<path d="M776 1415 c-10 -16 -15 -34 -11 -43 6 -14 8 -15 12 -2 2 8 9 25 15
37 16 33 4 38 -16 8z"/>
<path d="M1329 1669 c5 -6 8 -17 7 -23 -2 -6 -1 -8 1 -4 2 4 10 5 17 2 8 -3
16 4 19 18 5 20 5 21 -7 6 -11 -15 -15 -15 -29 -3 -9 8 -13 10 -8 4z"/>
<path d="M1465 1669 c-11 -16 -1 -19 13 -3 7 8 8 14 3 14 -5 0 -13 -5 -16 -11z"/>
<path d="M1699 1647 c19 -21 30 -37 24 -37 -6 0 -13 -9 -16 -21 -4 -13 -10
-18 -18 -14 -6 5 -35 7 -64 6 -45 -1 -53 1 -58 19 -7 28 -36 25 -47 -6 -6 -15
-15 -22 -21 -18 -7 4 -26 7 -43 6 -17 0 -38 5 -46 12 -19 16 -65 25 -80 16
-13 -8 -29 -71 -30 -113 0 -29 0 -29 55 -25 42 2 56 -1 60 -12 8 -22 63 -80
76 -80 6 0 -3 12 -20 26 -18 14 -36 34 -41 44 -8 15 -5 18 15 18 16 0 25 -6
26 -17 0 -14 1 -14 7 -1 9 19 24 22 92 20 109 -3 105 -2 107 -28 1 -20 -3 -23
-22 -20 -21 4 -22 2 -15 -18 7 -18 6 -22 -5 -18 -10 4 -13 -4 -11 -36 2 -23 0
-36 -4 -30 -5 8 -10 9 -14 2 -9 -15 -66 -42 -88 -42 -10 0 -18 -5 -18 -11 0
-5 -4 -8 -10 -4 -11 7 -42 -49 -33 -59 4 -3 1 -6 -5 -6 -7 0 -12 -9 -12 -20 0
-11 -9 -25 -20 -32 -12 -8 -20 -24 -20 -41 0 -15 -7 -42 -16 -59 -13 -25 -14
-38 -5 -75 7 -24 8 -49 5 -55 -4 -6 -8 -39 -9 -74 -3 -72 -19 -152 -43 -207
-13 -32 -14 -42 -3 -59 9 -15 9 -23 0 -34 -13 -16 3 -44 27 -44 7 0 16 -10 19
-22 11 -36 64 -139 80 -155 26 -26 11 -137 -22 -160 -15 -12 -19 -9 -31 31 -9
29 -20 43 -30 42 -11 -1 -17 7 -17 21 0 12 -6 28 -14 35 -11 11 -13 9 -7 -14
4 -20 1 -30 -11 -38 -16 -10 -16 -11 2 -7 26 5 51 -18 30 -27 -8 -3 -15 -1
-15 4 0 6 -8 10 -17 9 -11 0 -13 -3 -5 -6 6 -2 12 -16 12 -30 0 -24 -2 -24
-42 -18 -77 12 -79 13 -60 36 9 10 26 19 37 20 18 0 18 1 -3 10 -13 5 -21 13
-17 19 8 12 43 -9 49 -30 3 -10 5 -8 4 5 -1 36 2 45 13 45 5 0 7 -4 4 -10 -3
-5 -1 -10 5 -10 7 0 10 6 7 13 -2 6 -13 12 -25 11 -30 -1 -16 23 18 30 16 3
40 16 52 28 l23 23 -35 3 c-30 3 -39 -1 -60 -30 -14 -18 -38 -45 -53 -59 -21
-19 -25 -28 -15 -31 28 -10 0 -17 -32 -8 -46 13 -78 46 -106 108 -20 45 -27
52 -51 52 -18 0 -33 -8 -42 -21 -11 -19 -11 -21 3 -16 8 3 19 0 23 -7 5 -7 23
-21 41 -31 17 -11 35 -27 38 -37 3 -10 10 -18 15 -18 5 0 9 -5 9 -11 0 -8 -4
-9 -13 0 -16 13 -27 5 -27 -20 0 -24 -61 -43 -113 -36 -27 4 -36 2 -26 -4 7
-5 22 -9 32 -9 11 0 17 -8 17 -22 0 -25 30 -80 63 -115 13 -15 31 -23 51 -22
l31 2 -35 6 c-39 7 -86 64 -96 119 -9 44 14 43 43 -3 35 -54 66 -68 141 -69
80 -1 91 2 115 32 20 24 67 30 67 9 0 -45 -72 -87 -151 -87 -27 0 -49 -4 -49
-9 0 -4 31 -6 69 -4 43 3 72 0 76 -6 3 -6 11 -11 17 -11 7 0 7 5 -1 14 -9 11
-6 18 19 36 18 13 30 30 30 44 0 15 12 31 37 47 43 28 51 49 52 139 1 68 19
106 77 170 29 32 97 158 124 232 12 32 25 60 30 63 6 4 9 -33 9 -87 -1 -51 2
-105 6 -121 4 -15 4 -51 1 -81 -6 -43 -12 -55 -31 -64 -29 -14 -41 -52 -25
-82 11 -20 7 -27 -34 -66 -38 -35 -46 -49 -46 -78 0 -45 -19 -137 -32 -153
-14 -17 1262 -19 1294 -2 15 8 19 8 14 0 -5 -7 10 -11 45 -11 45 0 50 2 39 15
-16 19 -7 19 30 0 29 -15 30 -15 30 10 0 27 -34 68 -60 71 -8 1 -24 5 -35 8
-22 6 -44 -7 -64 -39 -8 -13 -11 -14 -7 -3 3 9 -2 18 -12 21 -9 3 -25 8 -34
12 -12 5 -18 3 -18 -6 0 -7 3 -9 7 -5 4 3 13 -4 21 -16 11 -19 12 -19 7 -3 -5
16 -4 18 6 7 10 -9 10 -15 1 -24 -7 -7 -12 -9 -12 -5 0 3 -10 3 -23 -2 -25
-10 -57 3 -57 22 0 7 4 6 10 -3 9 -13 10 -13 11 0 0 10 3 8 9 -5 8 -19 9 -19
9 4 1 16 -3 21 -13 18 -45 -18 -38 66 10 118 19 21 34 40 34 44 0 3 11 23 25
43 42 62 76 200 74 298 -1 47 1 103 6 125 4 23 4 37 -1 32 -9 -9 -10 -12 -14
-49 -1 -16 -3 -18 -7 -8 -3 8 -12 18 -19 23 -7 4 -15 26 -19 50 -8 45 -41 89
-87 113 -15 8 -68 17 -117 21 -87 6 -90 5 -115 -21 -33 -32 -66 -33 -94 -3
-19 20 -29 23 -81 19 -32 -2 -61 0 -64 5 -3 5 -12 37 -20 71 l-14 63 53 35
c64 42 140 124 200 214 31 46 55 70 81 81 l38 17 -40 6 c-22 4 -76 18 -120 31
-44 13 -96 26 -115 30 -37 7 -190 -16 -274 -41 -27 -7 -68 -14 -90 -14 l-39 0
20 23 c21 23 53 80 53 94 0 4 -13 -15 -30 -43 -17 -31 -38 -54 -52 -58 -35 -9
-98 -7 -98 3 0 5 -11 12 -24 15 -22 5 -25 13 -31 72 -7 62 -1 151 11 163 3 3
37 8 77 10 l72 5 -70 6 c-54 5 -79 2 -109 -11 -39 -17 -41 -17 -70 3 l-31 21
34 -36z m-147 -74 c-4 -23 -2 -26 9 -15 7 6 20 12 28 12 13 0 13 -2 -1 -16
-13 -13 -14 -23 -7 -42 12 -32 2 -43 -17 -17 -14 19 -16 19 -25 3 -27 -49 -33
21 -8 90 12 31 28 20 21 -15z m-152 12 c6 -8 8 -20 4 -27 -5 -7 -7 -23 -6 -35
4 -25 -23 -43 -63 -43 -27 0 -27 1 -20 53 4 28 9 55 12 60 8 13 60 8 73 -8z
m345 -17 c-13 -63 -41 -66 -30 -4 5 22 13 36 22 36 11 0 13 -7 8 -32z m-250
-9 c4 -6 4 -25 1 -43 -5 -28 -11 -34 -34 -34 -15 0 -33 5 -39 10 -18 15 2 48
30 49 l22 2 -23 4 c-12 2 -20 9 -17 14 8 12 52 11 60 -2z m190 0 c4 -6 4 -25
1 -44 -6 -30 -10 -33 -39 -32 -27 2 -32 6 -32 27 0 17 7 26 25 31 24 7 25 7 2
8 -13 1 -20 6 -17 11 8 13 52 13 60 -1z m85 -21 c0 -21 -3 -29 -10 -22 -5 5
-7 19 -4 32 9 31 14 27 14 -10z m-40 -36 c0 -13 -12 -22 -22 -16 -10 6 -1 24
13 24 5 0 9 -4 9 -8z m96 -119 c19 -25 17 -33 -6 -33 -15 0 -20 7 -20 25 0 29
8 32 26 8z m744 -17 c0 -2 -7 -6 -15 -10 -8 -3 -15 -1 -15 4 0 6 7 10 15 10 8
0 15 -2 15 -4z m-766 -36 c19 -7 26 -17 26 -35 0 -15 4 -24 9 -21 4 3 6 17 3
32 -4 21 -1 25 13 22 11 -2 28 -30 47 -78 16 -41 36 -82 43 -90 12 -13 12 -22
1 -55 -19 -54 -39 -65 -117 -65 -66 0 -67 0 -78 31 -17 48 -14 182 5 229 9 22
18 40 19 40 2 0 15 -4 29 -10z m-184 -345 c0 -8 -4 -15 -10 -15 -5 0 -10 7
-10 15 0 8 5 15 10 15 6 0 10 -7 10 -15z m10 -39 c0 -3 -4 -8 -10 -11 -5 -3
-10 -1 -10 4 0 6 5 11 10 11 6 0 10 -2 10 -4z m-440 -803 c11 3 30 -3 42 -12
21 -18 21 -18 -21 -25 -30 -4 -52 -2 -77 10 -33 16 -46 34 -23 34 5 0 8 4 5 9
-12 19 20 18 37 -1 11 -13 25 -18 37 -15z m28 18 c9 -5 3 -8 -17 -9 -17 0 -31
4 -31 9 0 11 30 12 48 0z m1318 -101 c0 -12 -4 -16 -9 -11 -5 5 -6 14 -3 20
10 15 12 14 12 -9z m80 8 c5 -7 3 -8 -6 -3 -10 6 -12 4 -6 -11 5 -14 4 -16 -5
-7 -6 6 -8 16 -5 22 9 14 13 14 22 -1z m74 -2 c0 -8 -4 -17 -9 -21 -12 -7 -24
12 -16 25 9 15 25 12 25 -4z m30 -1 c0 -19 -6 -19 -14 0 -3 8 -1 15 4 15 6 0
10 -7 10 -15z m210 -5 c0 -11 -2 -20 -4 -20 -2 0 -6 9 -9 20 -3 11 -1 20 4 20
5 0 9 -9 9 -20z m40 6 c0 -8 -4 -17 -9 -21 -12 -7 -24 12 -16 25 9 15 25 12
25 -4z m-83 -18 c-3 -8 -6 -5 -6 6 -1 11 2 17 5 13 3 -3 4 -12 1 -19z m-137
-24 c0 -2 -9 -4 -21 -4 -11 0 -18 4 -14 10 5 8 35 3 35 -6z"/>
<path d="M1350 1565 c0 -16 16 -20 24 -6 3 5 -1 11 -9 15 -9 3 -15 0 -15 -9z"/>
<path d="M1340 1520 c0 -5 9 -10 20 -10 11 0 20 5 20 10 0 6 -9 10 -20 10 -11
0 -20 -4 -20 -10z"/>
<path d="M1445 1510 c4 -6 11 -8 16 -5 14 9 11 15 -7 15 -8 0 -12 -5 -9 -10z"/>
<path d="M1635 1510 c4 -6 11 -8 16 -5 14 9 11 15 -7 15 -8 0 -12 -5 -9 -10z"/>
<path d="M2801 1666 c-19 -23 4 -28 24 -6 15 17 16 20 3 20 -9 0 -21 -6 -27
-14z"/>
<path d="M2878 1662 c-16 -10 -28 -20 -28 -24 0 -14 14 -8 45 17 34 28 24 32
-17 7z"/>
<path d="M1998 1641 c58 -18 62 -28 37 -88 -8 -20 -13 -38 -11 -40 7 -7 38 84
34 102 -3 16 -75 47 -103 44 -5 -1 14 -9 43 -18z"/>
<path d="M1046 1613 c-6 -14 -5 -15 5 -6 7 7 10 15 7 18 -3 3 -9 -2 -12 -12z"/>
<path d="M1261 1594 c0 -11 3 -14 6 -6 3 7 2 16 -1 19 -3 4 -6 -2 -5 -13z"/>
<path d="M943 1565 c0 -22 2 -30 4 -17 2 12 2 30 0 40 -3 9 -5 -1 -4 -23z"/>
<path d="M2953 1560 c-84 -48 -82 -68 3 -30 40 19 64 43 52 55 -2 2 -27 -9
-55 -25z"/>
<path d="M1252 1530 c0 -14 2 -19 5 -12 2 6 2 18 0 25 -3 6 -5 1 -5 -13z"/>
<path d="M1128 1525 c-9 -9 4 -109 18 -136 7 -14 20 -32 30 -39 9 -8 5 3 -10
24 -23 35 -31 74 -29 144 1 13 -1 15 -9 7z"/>
<path d="M1848 1518 c-9 -7 -17 -29 -18 -48 -3 -54 2 -60 9 -11 3 25 12 46 19
49 14 4 17 -34 2 -43 -13 -8 -13 -25 0 -25 13 0 25 69 13 81 -6 6 -15 4 -25
-3z"/>
<path d="M2981 1521 c-25 -7 -42 -31 -22 -31 6 0 11 5 11 10 0 6 9 10 20 10
11 0 20 5 20 10 0 6 -1 10 -2 9 -2 -1 -14 -4 -27 -8z"/>
<path d="M1003 1465 c0 -22 2 -30 4 -17 2 12 2 30 0 40 -3 9 -5 -1 -4 -23z"/>
<path d="M1037 1485 c-9 -29 -12 -113 -4 -121 4 -4 7 17 8 47 0 39 3 49 9 34
11 -25 11 -1 1 35 -7 23 -8 24 -14 5z"/>
<path d="M1103 1475 c-3 -9 -3 -34 0 -56 l5 -41 -24 23 c-13 12 -24 20 -24 16
0 -11 43 -47 56 -47 10 0 11 7 2 30 -6 17 -8 44 -4 60 6 32 -1 41 -11 15z"/>
<path d="M1270 1465 c0 -14 4 -25 9 -25 4 0 6 11 3 25 -2 14 -6 25 -8 25 -2 0
-4 -11 -4 -25z"/>
<path d="M1301 1440 c0 -8 4 -24 9 -35 5 -13 9 -14 9 -5 0 8 -4 24 -9 35 -5
13 -9 14 -9 5z"/>
<path d="M2970 1440 c-13 -9 -13 -10 0 -10 8 0 22 5 30 10 13 9 13 10 0 10 -8
0 -22 -5 -30 -10z"/>
<path d="M1211 1424 c0 -11 3 -14 6 -6 3 7 2 16 -1 19 -3 4 -6 -2 -5 -13z"/>
<path d="M1395 1413 c8 -40 -6 -43 -34 -7 -12 15 -21 22 -21 17 0 -13 44 -53
58 -53 7 0 12 6 12 14 0 9 8 13 23 9 21 -4 21 -4 2 8 -11 6 -26 19 -33 28 -12
14 -13 12 -7 -16z"/>
<path d="M1197 1370 c7 -39 13 -52 13 -26 0 14 3 15 21 5 17 -9 20 -8 17 3 -3
7 -10 13 -16 13 -6 0 -18 9 -26 20 -15 19 -15 18 -9 -15z"/>
<path d="M0 1186 c0 -6 151 -38 156 -33 3 2 -26 12 -63 21 -68 16 -93 19 -93
12z"/>
<path d="M1101 1095 c0 -12 -6 -26 -13 -33 -6 -6 -9 -14 -6 -18 10 -9 30 35
25 54 -4 13 -5 13 -6 -3z"/>
<path d="M1250 1089 c0 -9 7 -32 15 -50 18 -44 19 -26 0 26 -8 22 -14 33 -15
24z"/>
<path d="M1286 1065 c4 -16 11 -37 15 -45 6 -10 7 -4 3 15 -4 17 -11 37 -15
45 -6 10 -7 4 -3 -15z"/>
<path d="M1 916 c9 -8 98 -13 93 -5 -3 5 -26 9 -51 9 -26 0 -44 -2 -42 -4z"/>
<path d="M163 903 c9 -2 23 -2 30 0 6 3 -1 5 -18 5 -16 0 -22 -2 -12 -5z"/>
<path d="M360 799 c-18 -5 -10 -7 28 -8 28 -1 52 1 52 3 0 8 -56 12 -80 5z"/>
<path d="M490 800 c-13 -8 -13 -10 2 -10 9 0 20 5 23 10 8 13 -5 13 -25 0z"/>
<path d="M555 800 c3 -5 8 -10 11 -10 2 0 4 5 4 10 0 6 -5 10 -11 10 -5 0 -7
-4 -4 -10z"/>
<path d="M605 800 c-3 -5 -2 -10 4 -10 5 0 13 5 16 10 3 6 2 10 -4 10 -5 0
-13 -4 -16 -10z"/>
<path d="M53 793 c20 -2 54 -2 75 0 20 2 3 4 -38 4 -41 0 -58 -2 -37 -4z"/>
<path d="M198 793 c6 -2 18 -2 25 0 6 3 1 5 -13 5 -14 0 -19 -2 -12 -5z"/>
<path d="M310 559 c0 -5 5 -7 10 -4 6 3 10 8 10 11 0 2 -4 4 -10 4 -5 0 -10
-5 -10 -11z"/>
<path d="M1103 515 c0 -33 2 -45 4 -27 2 18 2 45 0 60 -2 15 -4 0 -4 -33z"/>
<path d="M250 550 c0 -5 7 -10 15 -10 8 0 15 5 15 10 0 6 -7 10 -15 10 -8 0
-15 -4 -15 -10z"/>
<path d="M1077 274 c6 -15 23 -19 23 -5 0 5 -7 11 -14 14 -10 4 -13 1 -9 -9z"/>
<path d="M517 259 c-5 -20 0 -24 19 -11 9 5 8 10 -1 19 -10 9 -14 8 -18 -8z"/>
<path d="M2990 192 c0 -5 -15 -14 -34 -22 -25 -9 -33 -19 -33 -36 0 -13 4 -24
9 -24 5 0 6 5 3 10 -9 15 8 12 31 -5 34 -26 44 -18 44 35 0 28 -4 50 -10 50
-5 0 -10 -4 -10 -8z"/>
</g>
</svg>
